<?xml version="1.0" encoding="utf-8"?>
<!-- Generator: Adobe Illustrator 19.2.1, SVG Export Plug-In . SVG Version: 6.00 Build 0)  -->
<svg version="1.1" id="Layer_1" xmlns="http://www.w3.org/2000/svg" xmlns:xlink="http://www.w3.org/1999/xlink" x="0px" y="0px"
	 viewBox="0 0 50 50" style="enable-background:new 0 0 50 50;" xml:space="preserve">
<style type="text/css">
	.st0{fill:#9C9FAF;}
</style>
<path class="st0" d="M25,0C11.3,0,0.2,11.2,0.2,25S11.3,50,25,50s24.8-11.2,24.8-25S38.7,0,25,0z M5.1,19.7C7,12.5,12.6,6.8,19.8,5
	l0.5-0.1l0,0.6C19.9,13.6,13.6,20,5.5,20.3l-0.5,0L5.1,19.7z M44.9,30.2C43,37.5,37.4,43.2,30.2,45l-0.5,0.1l0-0.6
	c0.4-8.2,6.7-14.5,14.8-14.9l0.5,0L44.9,30.2z M45.1,25.4c-10.9,0-19.7,8.9-19.7,19.9v0.4H25C13.7,45.7,4.5,36.4,4.5,25v-0.4h0.4
	c10.9,0,19.7-8.9,19.7-19.9V4.3H25c11.3,0,20.5,9.3,20.5,20.7v0.4H45.1z"/>
</svg>
