<?xml version="1.0" encoding="utf-8"?>
<!-- Generator: Adobe Illustrator 16.0.0, SVG Export Plug-In . SVG Version: 6.00 Build 0)  -->
<!DOCTYPE svg PUBLIC "-//W3C//DTD SVG 1.1//EN" "http://www.w3.org/Graphics/SVG/1.1/DTD/svg11.dtd">
<svg version="1.1" id="Layer_1" xmlns="http://www.w3.org/2000/svg" xmlns:xlink="http://www.w3.org/1999/xlink" x="0px" y="0px"
	 width="68px" height="68px" viewBox="0 0 68 68" enable-background="new 0 0 68 68" xml:space="preserve">
<g id="rBIZMV.tif">
	<g>
		<path fill="#9c9faf" d="M63.139,67.963c-0.333,0-0.667,0-1,0c-4.589-4.754-9.296-9.401-13.716-14.307
			c-2.241-2.487-3.863-2.835-7.057-1.107C25.433,61.167,6.164,52.68,1.24,35.202c-0.31-1.097-0.732-2.16-1.102-3.239
			c0-2.667,0-5.333,0-8c0.369-1.079,0.79-2.144,1.099-3.24C4.787,8.115,16.021-0.285,29.003-0.018
			c12.823,0.265,23.788,9.301,26.644,22.123c1.824,8.192-0.25,15.718-5.211,23.386c5.958,5.536,11.773,10.94,17.524,16.284
			C66.102,64.16,64.62,66.062,63.139,67.963z M48.214,28.205c0.094-11.117-8.65-20.113-19.664-20.232
			C17.583,7.855,8.434,16.758,8.271,27.707c-0.162,10.878,8.862,20.111,19.781,20.24C39.079,48.077,48.12,39.224,48.214,28.205z"/>
		<path display="none" fill-rule="evenodd" clip-rule="evenodd" fill="#9c9faf" d="M63.139,67.963
			c1.481-1.901,2.963-3.803,4.821-6.188c-5.751-5.344-11.566-10.748-17.524-16.284c4.961-7.668,7.035-15.193,5.211-23.386
			C52.791,9.283,41.826,0.247,29.003-0.018C16.021-0.285,4.787,8.115,1.237,20.723c-0.309,1.097-0.729,2.161-1.099,3.24
			c0-8.309,0-16.617,0-24.963C23.046-1,45.954-1,69-1c0,22.962,0,45.963,0,68.963C67.127,67.963,65.133,67.963,63.139,67.963z"/>
		<path display="none" fill-rule="evenodd" clip-rule="evenodd" fill="#9c9faf" d="M0.139,31.963
			c0.369,1.079,0.792,2.143,1.102,3.239C6.164,52.68,25.433,61.167,41.366,52.549c3.193-1.728,4.815-1.38,7.057,1.107
			c4.42,4.905,9.127,9.553,13.716,14.307c-20.562,0-41.123,0-62,0C0.139,55.965,0.139,43.964,0.139,31.963z"/>
		<path display="none" fill-rule="evenodd" clip-rule="evenodd" fill="#9c9faf" d="M48.214,28.205
			c-0.094,11.019-9.135,19.872-20.162,19.742c-10.919-0.129-19.943-9.362-19.781-20.24C8.434,16.758,17.583,7.855,28.55,7.973
			C39.563,8.092,48.308,17.088,48.214,28.205z"/>
	</g>
</g>
</svg>
