<?xml version="1.0" encoding="utf-8"?>
<!-- Generator: Adobe Illustrator 16.0.0, SVG Export Plug-In . SVG Version: 6.00 Build 0)  -->
<!DOCTYPE svg PUBLIC "-//W3C//DTD SVG 1.1//EN" "http://www.w3.org/Graphics/SVG/1.1/DTD/svg11.dtd">
<svg version="1.1" id="Layer_1" xmlns="http://www.w3.org/2000/svg" xmlns:xlink="http://www.w3.org/1999/xlink" x="0px" y="0px"
	 width="13px" height="13px" viewBox="0 0 13 13" enable-background="new 0 0 13 13" xml:space="preserve">
<g id="_x35_xf93U.tif">
	<g>
		<g>
			<path fill="#9c9faf" fill-rule="evenodd" clip-rule="evenodd" d="M12.888,6.5c0,3.523-2.875,6.394-6.4,6.388
				c-3.523-0.006-6.386-2.886-6.375-6.413c0.012-3.503,2.87-6.355,6.374-6.362C10.013,0.107,12.888,2.976,12.888,6.5z M9.504,2.002
				c-0.599-0.441-1.37-0.711-2.193-0.871C6.997,1.07,6.822,1.166,6.655,1.434C5.818,2.781,5.494,4.272,5.415,5.825
				C5.339,7.289,5.191,7.068,6.675,7.118C7.016,7.13,7.063,6.97,7.121,6.672c0.137-0.705,0.224-1.463,0.558-2.077
				C8.172,3.69,8.862,2.894,9.504,2.002z M7.855,7.038c1.337-0.145,2.551-0.404,3.611-1.129c0.16-0.109,0.339-0.383,0.31-0.545
				c-0.192-1.072-0.718-1.974-1.535-2.746C8.846,3.765,7.889,5.101,7.855,7.038z M5.937,1.12C4.69,1.259,3.705,1.729,2.871,2.513
				C2.789,2.59,2.765,2.781,2.785,2.908C2.966,4.071,3.158,5.232,3.36,6.392c0.022,0.13,0.097,0.328,0.189,0.356
				c0.339,0.104,0.695,0.148,1.075,0.221C4.615,4.886,4.888,2.965,5.937,1.12z M5.471,7.867c0.126,1.17,0.402,2.256,0.936,3.268
				c0.44,0.834,0.507,0.866,1.415,0.621c0.659-0.178,1.295-0.418,1.838-0.896C8.097,9.83,8.063,9.789,7.212,8.063
				C7.17,7.979,7.052,7.879,6.965,7.876C6.496,7.857,6.025,7.867,5.471,7.867z M11.901,6.762c-1.323,0.4-2.604,0.787-3.888,1.175
				c0.2,0.877,1.229,1.992,2.149,2.269c0.091,0.027,0.248,0.009,0.306-0.054C11.38,9.177,11.875,8.027,11.901,6.762z M5.941,11.885
				c-0.713-1.239-1.046-2.502-1.239-3.811C4.683,7.946,4.549,7.766,4.435,7.733C4.101,7.641,3.75,7.612,3.493,7.571
				C3.208,8.463,2.937,9.313,2.63,10.272C3.414,11.113,4.502,11.712,5.941,11.885z M2.011,9.467c0.333-0.463,0.65-1.558,0.578-1.99
				C2.575,7.389,2.517,7.271,2.445,7.237C2.017,7.031,1.578,6.845,1.129,6.646C1.079,7.598,1.421,8.686,2.011,9.467z M2.477,6.461
				c0.055-0.033,0.111-0.065,0.167-0.097C2.495,5.388,2.346,4.412,2.198,3.436C1.612,4.031,1.329,4.7,1.203,5.433
				C1.185,5.537,1.255,5.71,1.341,5.768C1.708,6.016,2.096,6.233,2.477,6.461z"/>
		</g>
	</g>
</g>
</svg>
