<svg xmlns="http://www.w3.org/2000/svg" width="68" height="68" viewBox="0 0 68 68"><path fill="#9c9faf" d="M63.139 67.963h-1c-4.589-4.754-9.296-9.401-13.716-14.307-2.241-2.487-3.863-2.835-7.057-1.107-15.933 8.618-35.202.131-40.126-17.347-.31-1.097-.732-2.16-1.102-3.239v-8c.369-1.079.79-2.144 1.099-3.24C4.787 8.115 16.021-.285 29.003-.018c12.823.265 23.788 9.301 26.644 22.123 1.824 8.192-.25 15.718-5.211 23.386L67.96 61.775l-4.821 6.188zM48.214 28.205c.094-11.117-8.65-20.113-19.664-20.232-10.967-.118-20.116 8.785-20.279 19.734-.162 10.878 8.862 20.111 19.781 20.24 11.027.13 20.068-8.723 20.162-19.742z"/></svg>