<?xml version="1.0" encoding="utf-8"?>
<!-- Generator: Adobe Illustrator 19.2.1, SVG Export Plug-In . SVG Version: 6.00 Build 0)  -->
<svg version="1.1" id="Layer_1" xmlns="http://www.w3.org/2000/svg" xmlns:xlink="http://www.w3.org/1999/xlink" x="0px" y="0px"
	 viewBox="0 0 50 50" style="enable-background:new 0 0 50 50;" xml:space="preserve">
<style type="text/css">
	.st0{fill:#9C9FAF;}
</style>
<path class="st0" d="M50,25C50,11.2,38.8,0,25,0S0,11.2,0,25s11.2,25,25,25c6.2,0,12.1-2.3,16.7-6.5c0,0,0.1-0.1,0.2-0.2
	C47.1,38.6,50,31.9,50,25z M40,11l0.5-0.4l0.4,0.5c2.2,2.5,3.8,5.6,4.7,8.8l0.1,0.4l-0.3,0.3c-1,0.8-4.8,3.3-12.3,4.4l-0.9,0.1
	l0.1-0.9C33.1,17.5,37.5,13.1,40,11z M27.1,4.4L27.3,4l0.4,0c3.3,0.4,6.4,1.5,9.2,3.5L37.6,8l-0.6,0.6c-2.9,2.5-7.9,8-8.5,16.5
	l0,0.6l-0.6,0c-0.9,0-1.8,0.1-2.8,0.1c-0.9,0-1.8,0-2.6,0l-0.6,0V25C21.8,13.4,25.5,6.7,27.1,4.4z M4.5,20c0.6-2.4,1.6-4.7,2.9-6.8
	l0.8-1.2l0.4,1.3c0.5,1.8,1.2,4.7,1.5,9l0.1,1L9.2,23c-2.5-1-4-2.1-4.4-2.4l-0.3-0.3L4.5,20z M10.2,27.9c-0.1,2.9-0.6,5.8-1.5,8.8
	L8.3,38l-0.8-1.1C5.3,33.7,4,29.8,3.8,25.8l0-1.1l1,0.5c1.5,0.8,3.2,1.5,5,2.1l0.5,0.2L10.2,27.9z M11.5,8.7c2.9-2.4,6.3-3.9,10-4.5
	L22.8,4l-0.6,1.2c-1.6,3-4.2,9.4-4.3,19.4v0.7l-0.7-0.1c-0.8-0.1-1.7-0.3-2.7-0.5l-0.5-0.1v-0.5c-0.3-7.4-1.8-12.3-2.6-14.6
	l-0.2-0.4L11.5,8.7z M21.5,45.8c-3.7-0.6-7.1-2.2-9.9-4.5L11.2,41l0.2-0.4c0.6-1.6,2.2-5.9,2.6-11.4l0-0.7l0.7,0.1
	c0.9,0.2,1.8,0.3,2.8,0.4l0.5,0.1l0,0.5c0.6,7.3,2.6,12.4,4.1,15.3l0.6,1.2L21.5,45.8z M36.3,42.8c-2.5,1.7-5.4,2.7-8.5,3.1l-0.4,0
	l-0.2-0.3c-1-1.3-4.2-6.4-5.1-15.6L22,29.4l0.7,0c0.8,0,1.5,0,2.3,0c1,0,2.1,0,2.9-0.1l0.6,0l0.1,0.6c0.9,6,4.7,9.8,7.7,11.8
	l0.8,0.6L36.3,42.8z M40.6,39.3l-0.3,0.4l-0.4-0.3c-2.4-1.3-6.4-4.2-7.4-9.7L32.3,29l0.6-0.1c6.1-0.9,10-2.5,12.2-3.7l1-0.6l0,1.2
	C45.9,30.8,43.9,35.5,40.6,39.3z"/>
</svg>
