<?xml version="1.0" encoding="utf-8"?>
<!-- Generator: Adobe Illustrator 19.2.1, SVG Export Plug-In . SVG Version: 6.00 Build 0)  -->
<svg version="1.1" id="Layer_1" xmlns="http://www.w3.org/2000/svg" xmlns:xlink="http://www.w3.org/1999/xlink" x="0px" y="0px"
	 viewBox="0 0 50 50" style="enable-background:new 0 0 50 50;" xml:space="preserve">
<style type="text/css">
	.st0{fill:#9C9FAF;}
</style>
<path class="st0" d="M49.8,38c0-4.1-8.3-4.5-10.9-4.5c-0.6,0-2.9,0-5.3,0.4l-0.4,0.1l13.3-23c0.9-1.2,1.3-2.5,1-4
	c-0.3-1.5-1.2-2.7-2.5-3.5l-3.4-1.9C40.8,1.3,39.9,1,39,1c-1.9,0-3.7,1-4.6,2.6l-10.9,19H8.7c-4.7,0-8.5,3.8-8.5,8.5
	s3.8,8.5,8.5,8.5h16.7c0.8,0,1.7-0.1,2.4-0.4l0.3-0.1v5.6c0.3,3.9,8.4,4.2,10.9,4.2s10.6-0.3,10.9-4.2L49.8,38z M37.5,5.5
	C37.8,5,38.4,4.6,39,4.6c0.3,0,0.6,0.1,0.8,0.2l3.4,1.9c0.4,0.2,0.6,0.6,0.7,1c0,0.4,0,0.7-0.3,1.1L43.4,9L41,13.2l-6-3.4L37.5,5.5z
	 M34,11.5l6,3.4l-1.7,2.9l-6-3.4L34,11.5z M28.7,34.5c-0.2,0.2-0.4,0.4-0.6,0.5c-0.8,0.6-1.7,0.8-2.7,0.8H8.7
	c-2.7,0-4.8-2.1-4.8-4.8s2.1-4.8,4.8-4.8h16.9l5.9-10.2l6,3.4l-4.3,7.4L28.7,34.5z M46.2,44.1l-0.1,0c-0.8,0.4-3.2,1.2-7.1,1.2
	c-4,0-6.4-0.7-7.1-1.2l-0.1,0v-3.4l0.2,0.1c2.7,0.8,6.3,0.9,7,0.9s4.2,0,7-0.9l0.2-0.1V44.1z M45.8,38.6c-0.7,0.3-2.9,0.9-6.9,0.9
	c-3.8,0-6.1-0.6-6.9-0.9l-0.5-0.2l0.5-0.2c1.1-0.5,3.5-1,6.9-1c3.4,0,5.8,0.6,6.9,1l0.4,0.2L45.8,38.6z"/>
</svg>
