<svg id="Layer_1" xmlns="http://www.w3.org/2000/svg" viewBox="0 0 50 50"><style>.st0{fill:#9c9faf}</style><path class="st0" d="M50 25C50 11.2 38.8 0 25 0S0 11.2 0 25s11.2 25 25 25c6.2 0 12.1-2.3 16.7-6.5l.2-.2C47.1 38.6 50 31.9 50 25zM40 11l.5-.4.4.5c2.2 2.5 3.8 5.6 4.7 8.8l.1.4-.3.3c-1 .8-4.8 3.3-12.3 4.4l-.9.1.1-.9c.8-6.7 5.2-11.1 7.7-13.2zM27.1 4.4l.2-.4h.4c3.3.4 6.4 1.5 9.2 3.5l.7.5-.6.6c-2.9 2.5-7.9 8-8.5 16.5v.6h-.6c-.9 0-1.8.1-2.8.1h-3.2V25c-.1-11.6 3.6-18.3 5.2-20.6zM4.5 20c.6-2.4 1.6-4.7 2.9-6.8l.8-1.2.4 1.3c.5 1.8 1.2 4.7 1.5 9l.1 1-1-.3c-2.5-1-4-2.1-4.4-2.4l-.3-.3V20zm5.7 7.9c-.1 2.9-.6 5.8-1.5 8.8L8.3 38l-.8-1.1C5.3 33.7 4 29.8 3.8 25.8v-1.1l1 .5c1.5.8 3.2 1.5 5 2.1l.5.2-.1.4zm1.3-19.2c2.9-2.4 6.3-3.9 10-4.5l1.3-.2-.6 1.2c-1.6 3-4.2 9.4-4.3 19.4v.7l-.7-.1c-.8-.1-1.7-.3-2.7-.5l-.5-.1v-.5c-.3-7.4-1.8-12.3-2.6-14.6l-.2-.4.3-.4zm10 37.1c-3.7-.6-7.1-2.2-9.9-4.5l-.4-.3.2-.4c.6-1.6 2.2-5.9 2.6-11.4v-.7l.7.1c.9.2 1.8.3 2.8.4l.5.1v.5c.6 7.3 2.6 12.4 4.1 15.3l.6 1.2-1.2-.3zm14.8-3c-2.5 1.7-5.4 2.7-8.5 3.1h-.4l-.2-.3c-1-1.3-4.2-6.4-5.1-15.6l-.1-.6h3c1 0 2.1 0 2.9-.1h.6l.1.6c.9 6 4.7 9.8 7.7 11.8l.8.6-.8.5zm4.3-3.5l-.3.4-.4-.3c-2.4-1.3-6.4-4.2-7.4-9.7l-.2-.7.6-.1c6.1-.9 10-2.5 12.2-3.7l1-.6v1.2c-.2 5-2.2 9.7-5.5 13.5z"/></svg>