<svg id="Layer_1" xmlns="http://www.w3.org/2000/svg" viewBox="0 0 50 50"><style>.st0{fill:#9c9faf}</style><path class="st0" d="M25 0C11.3 0 .2 11.2.2 25S11.3 50 25 50s24.8-11.2 24.8-25S38.7 0 25 0zM5.1 19.7C7 12.5 12.6 6.8 19.8 5l.5-.1v.6c-.4 8.1-6.7 14.5-14.8 14.8H5l.1-.6zm39.8 10.5c-1.9 7.3-7.5 13-14.7 14.8l-.5.1v-.6c.4-8.2 6.7-14.5 14.8-14.9h.5l-.1.6zm.2-4.8c-10.9 0-19.7 8.9-19.7 19.9v.4H25C13.7 45.7 4.5 36.4 4.5 25v-.4h.4c10.9 0 19.7-8.9 19.7-19.9v-.4h.4c11.3 0 20.5 9.3 20.5 20.7v.4h-.4z"/></svg>