<?xml version="1.0" encoding="utf-8"?>
<!-- Generator: Adobe Illustrator 19.2.1, SVG Export Plug-In . SVG Version: 6.00 Build 0)  -->
<svg version="1.1" id="Layer_1" xmlns="http://www.w3.org/2000/svg" xmlns:xlink="http://www.w3.org/1999/xlink" x="0px" y="0px"
	 viewBox="0 0 50 50" style="enable-background:new 0 0 50 50;" xml:space="preserve">
<style type="text/css">
	.st0{fill:#9C9FAF;}
</style>
<g>
	<path class="st0" d="M48.2,13.3c0-4.1-1-7.4-2.6-9c-1.8-1.6-5-2.5-8.9-2.5c-6.9,0-17,2.8-24.5,10.5C1.1,23.5-0.5,40.8,4.4,45.7
		c1.6,1.6,4.8,2.5,8.9,2.5c6.8,0,16.7-2.8,24.5-10.5C45.5,30,48.2,20.1,48.2,13.3z M35.1,35.2c-6.9,6.7-15.8,9.1-21.8,9.1
		c-1.3,0-2.5-0.1-3.7-0.4l-0.8-0.2l4.1-4.1l-2.7-2.7l-4,4L6,40.2C5.7,38.7,5.4,36,6,32c1.2-6.8,4.3-12.7,8.9-17.2
		c7-6.7,15.8-9.1,21.8-9.1c1.3,0,2.5,0.1,3.6,0.3L41,6.2l-4.2,4.2l2.7,2.7l4.3-4.3L44,9.6c0.7,3,0.4,7.3-0.8,11.5
		C42.2,24.8,39.9,30.3,35.1,35.2L35.1,35.2z"/>
	<path class="st0" d="M36,23.9c0.5-0.5,0.5-1.4,0-2c-0.2-0.2-0.5-0.4-0.9-0.6c-0.5-0.3-1.1-0.7-1.8-1.3l-0.4-0.3l3.7-3.7l-2.8-2.7
		l-3.8,3.8l-0.3-0.4c-0.7-0.8-1.1-1.4-1.4-1.9c-0.2-0.4-0.4-0.6-0.6-0.8c-0.5-0.5-1.4-0.5-2,0l-0.2,0.2c-0.5,0.5-0.5,1.4,0,2
		c0.2,0.2,0.4,0.3,0.6,0.4c0.5,0.2,1.1,0.5,2.2,1.5l0.4,0.3l-4.6,4.6l-0.3-0.4c-0.7-0.8-1.1-1.4-1.4-1.9c-0.2-0.4-0.4-0.6-0.6-0.8
		c-0.5-0.5-1.4-0.5-2,0L19.8,20c-0.5,0.5-0.5,1.4,0,2c0.2,0.2,0.4,0.3,0.6,0.4c0.5,0.2,1.1,0.5,2.2,1.5l0.4,0.3l-4.6,4.6L18,28.3
		c-0.7-0.8-1.1-1.4-1.4-1.9c-0.2-0.4-0.4-0.6-0.6-0.8c-0.2-0.2-0.6-0.4-1-0.4s-0.7,0.1-1,0.4l-0.2,0.2c-0.3,0.3-0.4,0.6-0.4,1
		c0,0.4,0.1,0.7,0.4,1c0.2,0.2,0.4,0.3,0.6,0.4c0.5,0.2,1.1,0.5,2.2,1.5l0.4,0.3l-3.8,3.8l2.7,2.7l3.7-3.7l0.3,0.4
		c0.7,0.8,1,1.4,1.2,1.8c0.3,0.4,0.4,0.6,0.7,0.9c0.7,0.6,1.5,0.6,2,0l0.2-0.2c0.5-0.5,0.5-1.4,0-2c-0.2-0.2-0.5-0.4-0.9-0.6
		c-0.5-0.3-1.1-0.7-1.8-1.3l-0.4-0.3l4.5-4.5l0.3,0.4c0.7,0.8,1,1.4,1.2,1.8c0.3,0.4,0.4,0.6,0.7,0.9c0.7,0.6,1.5,0.6,2,0l0.2-0.2
		c0.3-0.3,0.4-0.6,0.4-1s-0.1-0.7-0.4-1c-0.2-0.2-0.5-0.4-0.9-0.6c-0.5-0.3-1.1-0.7-1.8-1.3L27,25.5l4.5-4.5l0.3,0.4
		c0.7,0.8,1,1.4,1.2,1.8c0.3,0.4,0.4,0.6,0.7,0.9c0.7,0.6,1.5,0.6,2,0L36,23.9z"/>
</g>
</svg>
