<svg xmlns="http://www.w3.org/2000/svg" width="68" height="68" viewBox="0 0 68 68"><path fill="#9c9faf" d="M63.14 67.963h-1c-4.59-4.754-9.297-9.4-13.717-14.307-2.24-2.487-3.863-2.835-7.057-1.107C25.433 61.166 6.164 52.68 1.24 35.2c-.31-1.097-.732-2.16-1.102-3.24v-8c.37-1.078.79-2.143 1.1-3.24C4.787 8.116 16.02-.284 29.002-.017c12.823.265 23.788 9.3 26.644 22.123 1.824 8.192-.25 15.718-5.21 23.386L67.96 61.776l-4.82 6.188zM48.213 28.205c.094-11.117-8.65-20.113-19.664-20.232-10.967-.118-20.116 8.785-20.28 19.734-.16 10.878 8.863 20.11 19.782 20.24 11.027.13 20.068-8.723 20.162-19.742z"/></svg>