<svg id="Layer_1" xmlns="http://www.w3.org/2000/svg" viewBox="0 0 50 50"><style>.st0{fill:#9c9faf}</style><path class="st0" d="M48.2 13.3c0-4.1-1-7.4-2.6-9-1.8-1.6-5-2.5-8.9-2.5-6.9 0-17 2.8-24.5 10.5C1.1 23.5-.5 40.8 4.4 45.7c1.6 1.6 4.8 2.5 8.9 2.5 6.8 0 16.7-2.8 24.5-10.5 7.7-7.7 10.4-17.6 10.4-24.4zM35.1 35.2c-6.9 6.7-15.8 9.1-21.8 9.1-1.3 0-2.5-.1-3.7-.4l-.8-.2 4.1-4.1-2.7-2.7-4 4-.2-.7c-.3-1.5-.6-4.2 0-8.2 1.2-6.8 4.3-12.7 8.9-17.2 7-6.7 15.8-9.1 21.8-9.1 1.3 0 2.5.1 3.6.3l.7.2-4.2 4.2 2.7 2.7 4.3-4.3.2.8c.7 3 .4 7.3-.8 11.5-1 3.7-3.3 9.2-8.1 14.1z"/><path class="st0" d="M36 23.9c.5-.5.5-1.4 0-2-.2-.2-.5-.4-.9-.6-.5-.3-1.1-.7-1.8-1.3l-.4-.3 3.7-3.7-2.8-2.7-3.8 3.8-.3-.4c-.7-.8-1.1-1.4-1.4-1.9-.2-.4-.4-.6-.6-.8-.5-.5-1.4-.5-2 0l-.2.2c-.5.5-.5 1.4 0 2 .2.2.4.3.6.4.5.2 1.1.5 2.2 1.5l.4.3-4.6 4.6-.3-.4c-.7-.8-1.1-1.4-1.4-1.9-.2-.4-.4-.6-.6-.8-.5-.5-1.4-.5-2 0v.1c-.5.5-.5 1.4 0 2 .2.2.4.3.6.4.5.2 1.1.5 2.2 1.5l.4.3-4.6 4.6-.4-.5c-.7-.8-1.1-1.4-1.4-1.9-.2-.4-.4-.6-.6-.8-.2-.2-.6-.4-1-.4s-.7.1-1 .4l-.2.2c-.3.3-.4.6-.4 1s.1.7.4 1c.2.2.4.3.6.4.5.2 1.1.5 2.2 1.5l.4.3-3.8 3.8 2.7 2.7 3.7-3.7.3.4c.7.8 1 1.4 1.2 1.8.3.4.4.6.7.9.7.6 1.5.6 2 0l.2-.2c.5-.5.5-1.4 0-2-.2-.2-.5-.4-.9-.6-.5-.3-1.1-.7-1.8-1.3l-.4-.3 4.5-4.5.3.4c.7.8 1 1.4 1.2 1.8.3.4.4.6.7.9.7.6 1.5.6 2 0l.2-.2c.3-.3.4-.6.4-1s-.1-.7-.4-1c-.2-.2-.5-.4-.9-.6-.5-.3-1.1-.7-1.8-1.3l-.1-.5 4.5-4.5.3.4c.7.8 1 1.4 1.2 1.8.3.4.4.6.7.9.7.6 1.5.6 2 0l.3-.2z"/></svg>