<svg id="Layer_1" xmlns="http://www.w3.org/2000/svg" viewBox="0 0 50 50"><style>.st0{fill:#9c9faf}</style><path class="st0" d="M49.8 38c0-4.1-8.3-4.5-10.9-4.5-.6 0-2.9 0-5.3.4l-.4.1 13.3-23c.9-1.2 1.3-2.5 1-4-.3-1.5-1.2-2.7-2.5-3.5l-3.4-1.9c-.8-.3-1.7-.6-2.6-.6-1.9 0-3.7 1-4.6 2.6l-10.9 19H8.7C4 22.6.2 26.4.2 31.1s3.8 8.5 8.5 8.5h16.7c.8 0 1.7-.1 2.4-.4l.3-.1v5.6c.3 3.9 8.4 4.2 10.9 4.2s10.6-.3 10.9-4.2l-.1-6.7zM37.5 5.5c.3-.5.9-.9 1.5-.9.3 0 .6.1.8.2l3.4 1.9c.4.2.6.6.7 1 0 .4 0 .7-.3 1.1l-.2.2-2.4 4.2-6-3.4 2.5-4.3zm-3.5 6l6 3.4-1.7 2.9-6-3.4 1.7-2.9zm-5.3 23c-.2.2-.4.4-.6.5-.8.6-1.7.8-2.7.8H8.7c-2.7 0-4.8-2.1-4.8-4.8s2.1-4.8 4.8-4.8h16.9L31.5 16l6 3.4-4.3 7.4-4.5 7.7zm17.5 9.6h-.1c-.8.4-3.2 1.2-7.1 1.2-4 0-6.4-.7-7.1-1.2h-.1v-3.4l.2.1c2.7.8 6.3.9 7 .9s4.2 0 7-.9l.2-.1v3.4zm-.4-5.5c-.7.3-2.9.9-6.9.9-3.8 0-6.1-.6-6.9-.9l-.5-.2.5-.2c1.1-.5 3.5-1 6.9-1 3.4 0 5.8.6 6.9 1l.4.2-.4.2z"/></svg>