<svg xmlns="http://www.w3.org/2000/svg" width="13" height="13" viewBox="0 0 13 13"><path fill="#9c9faf" fill-rule="evenodd" clip-rule="evenodd" d="M12.888 6.5c0 3.523-2.875 6.394-6.4 6.388C2.965 12.882.102 10.002.113 6.475.125 2.972 2.983.12 6.487.113c3.526-.006 6.4 2.863 6.4 6.387zM9.504 2.002c-.6-.44-1.37-.71-2.193-.87-.313-.062-.488.034-.655.302-.837 1.347-1.16 2.838-1.24 4.39C5.34 7.29 5.19 7.07 6.675 7.12c.34.012.388-.148.446-.446.138-.705.225-1.463.56-2.077.492-.905 1.182-1.7 1.824-2.593zm-1.65 5.036c1.338-.145 2.552-.404 3.612-1.13.16-.108.34-.382.31-.544-.192-1.072-.718-1.974-1.535-2.746C8.847 3.765 7.89 5.1 7.856 7.038zM5.938 1.12c-1.247.14-2.232.61-3.066 1.393-.08.077-.105.268-.085.395.18 1.163.373 2.324.575 3.484.022.13.097.328.19.356.338.104.694.148 1.074.22-.01-2.082.264-4.003 1.313-5.848zM5.47 7.867c.127 1.17.403 2.256.937 3.268.44.834.507.866 1.415.62.66-.177 1.295-.417 1.838-.895-1.563-1.03-1.597-1.07-2.448-2.797-.042-.084-.16-.184-.247-.187-.47-.02-.94-.01-1.494-.01zm6.43-1.105L8.014 7.937c.2.877 1.23 1.992 2.15 2.27.09.026.247.008.305-.055.912-.975 1.407-2.125 1.433-3.39zm-5.96 5.123c-.712-1.24-1.045-2.502-1.238-3.81-.02-.13-.153-.31-.267-.342-.334-.092-.685-.12-.942-.162l-.863 2.702c.784.84 1.872 1.44 3.31 1.613zM2.01 9.467c.334-.463.65-1.558.58-1.99-.015-.088-.073-.206-.145-.24-.428-.206-.867-.392-1.316-.59-.05.95.29 2.04.88 2.82zm.467-3.006l.167-.096c-.15-.976-.298-1.952-.446-2.928-.586.595-.87 1.264-.995 1.997-.018.104.052.277.138.335.368.248.756.465 1.137.693z"/></svg>