<svg xmlns="http://www.w3.org/2000/svg" width="13" height="13" viewBox="0 0 13 13"><path fill="#9c9faf" fill-rule="evenodd" clip-rule="evenodd" d="M12.888 6.5c0 3.523-2.875 6.394-6.4 6.388C2.965 12.882.102 10.002.113 6.475.125 2.972 2.983.12 6.487.113c3.526-.006 6.401 2.863 6.401 6.387zM9.504 2.002c-.599-.441-1.37-.711-2.193-.871-.314-.061-.489.035-.656.303-.837 1.347-1.161 2.838-1.24 4.391-.076 1.464-.224 1.243 1.26 1.293.341.012.388-.148.446-.446.137-.705.224-1.463.558-2.077.493-.905 1.183-1.701 1.825-2.593zM7.855 7.038c1.337-.145 2.551-.404 3.611-1.129.16-.109.339-.383.31-.545-.192-1.072-.718-1.974-1.535-2.746-1.395 1.147-2.352 2.483-2.386 4.42zM5.937 1.12c-1.247.139-2.232.609-3.066 1.393-.082.077-.106.268-.086.395.181 1.163.373 2.324.575 3.484.022.13.097.328.189.356.339.104.695.148 1.075.221-.009-2.083.264-4.004 1.313-5.849zm-.466 6.747c.126 1.17.402 2.256.936 3.268.44.834.507.866 1.415.621.659-.178 1.295-.418 1.838-.896-1.563-1.03-1.597-1.071-2.448-2.797-.042-.084-.16-.184-.247-.187-.469-.019-.94-.009-1.494-.009zm6.43-1.105L8.013 7.937c.2.877 1.229 1.992 2.149 2.269.091.027.248.009.306-.054.912-.975 1.407-2.125 1.433-3.39zm-5.96 5.123c-.713-1.239-1.046-2.502-1.239-3.811-.019-.128-.153-.308-.267-.341-.334-.092-.685-.121-.942-.162l-.863 2.701c.784.841 1.872 1.44 3.311 1.613zm-3.93-2.418c.333-.463.65-1.558.578-1.99-.014-.088-.072-.206-.144-.24-.428-.206-.867-.392-1.316-.591-.05.952.292 2.04.882 2.821zm.466-3.006l.167-.097-.446-2.928c-.586.595-.869 1.264-.995 1.997-.018.104.052.277.138.335.367.248.755.465 1.136.693z"/></svg>